<mxfile>
    <diagram id="objTApYHlBqCKos3M7rL" name="Page-1">
        <mxGraphModel dx="1263" dy="1167" grid="1" gridSize="10" guides="1" tooltips="1" connect="1" arrows="1" fold="1" page="1" pageScale="1" pageWidth="1920" pageHeight="1200" math="0" shadow="0">
            <root>
                <mxCell id="0"/>
                <mxCell id="1" parent="0"/>
                <mxCell id="4" value="" style="rounded=0;whiteSpace=wrap;html=1;fillColor=#FFFFFF;" parent="1" vertex="1">
                    <mxGeometry x="420" y="460" width="450" height="260" as="geometry"/>
                </mxCell>
                <mxCell id="3" value="&lt;font face=&quot;Roboto&quot; data-font-src=&quot;https://fonts.googleapis.com/css?family=Roboto&quot; style=&quot;font-size: 18px&quot;&gt;Machine / Computer&lt;/font&gt;" style="text;html=1;strokeColor=none;fillColor=none;align=center;verticalAlign=middle;whiteSpace=wrap;rounded=0;" parent="1" vertex="1">
                    <mxGeometry x="540" y="480" width="230" height="20" as="geometry"/>
                </mxCell>
                <mxCell id="12" style="edgeStyle=orthogonalEdgeStyle;rounded=0;orthogonalLoop=1;jettySize=auto;html=1;" parent="1" source="9" target="7" edge="1">
                    <mxGeometry relative="1" as="geometry"/>
                </mxCell>
                <mxCell id="9" value="&lt;font face=&quot;Roboto&quot; data-font-src=&quot;https://fonts.googleapis.com/css?family=Roboto&quot; color=&quot;#ffffff&quot; style=&quot;font-size: 18px&quot;&gt;Your code&lt;/font&gt;" style="shape=hexagon;perimeter=hexagonPerimeter2;whiteSpace=wrap;html=1;fixedSize=1;fillColor=#7e56c2;" parent="1" vertex="1">
                    <mxGeometry x="450" y="560" width="120" height="80" as="geometry"/>
                </mxCell>
                <mxCell id="11" value="" style="group;fillColor=#808080;" parent="1" vertex="1" connectable="0">
                    <mxGeometry x="610" y="520" width="210" height="160" as="geometry"/>
                </mxCell>
                <mxCell id="10" value="" style="group" parent="11" vertex="1" connectable="0">
                    <mxGeometry width="210" height="160" as="geometry"/>
                </mxCell>
                <mxCell id="7" value="" style="rounded=0;whiteSpace=wrap;html=1;fillColor=#999999;" parent="10" vertex="1">
                    <mxGeometry width="210" height="160" as="geometry"/>
                </mxCell>
                <mxCell id="8" value="&lt;font face=&quot;Roboto&quot; data-font-src=&quot;https://fonts.googleapis.com/css?family=Roboto&quot; style=&quot;font-size: 18px&quot;&gt;File: heroes.db&lt;/font&gt;" style="text;html=1;strokeColor=none;fillColor=none;align=center;verticalAlign=middle;whiteSpace=wrap;rounded=0;" parent="10" vertex="1">
                    <mxGeometry x="28" y="20" width="154" height="20" as="geometry"/>
                </mxCell>
                <mxCell id="5" value="&lt;font face=&quot;Roboto&quot; data-font-src=&quot;https://fonts.googleapis.com/css?family=Roboto&quot; style=&quot;font-size: 18px&quot;&gt;Data&lt;/font&gt;" style="ellipse;whiteSpace=wrap;html=1;aspect=fixed;fillColor=#fa0;" parent="10" vertex="1">
                    <mxGeometry x="70" y="60" width="80" height="80" as="geometry"/>
                </mxCell>
            </root>
        </mxGraphModel>
    </diagram>
</mxfile>
